# Blender v3.0.0 OBJ File: 'Windrad.blend'
# www.blender.org
mtllib Fluegel.mtl
o Cylinder
v -0.323291 22.643791 -4.894603
v -0.323291 22.643791 -4.612733
v -0.323291 11.805365 -4.894603
v -0.323291 11.805365 -4.612733
v 0.526032 22.643791 -4.753668
v 0.526032 11.805365 -4.753668
v -0.071976 22.643791 -4.622703
v -0.071976 11.805365 -4.622703
v -0.071976 22.643791 -4.884633
v -0.071976 11.805365 -4.884633
v -0.521690 22.643791 -4.753668
v -0.521690 11.805365 -4.753668
v -9.401614 28.988848 -4.753665
v -0.015261 23.569635 -4.753667
v -9.626470 28.599386 -4.884630
v -0.240118 23.180170 -4.884632
v -9.626470 28.599386 -4.622700
v -0.240118 23.180170 -4.622702
v -9.925475 28.081495 -4.753665
v -0.539122 22.662279 -4.753667
v -9.500813 28.817030 -4.612730
v -9.500813 28.817030 -4.894600
v -0.114461 23.397814 -4.612732
v -0.114461 23.397814 -4.894602
v 0.436205 22.830587 -4.894602
v 0.436205 22.830587 -4.612732
v 9.822558 28.249800 -4.894600
v 9.822558 28.249800 -4.612730
v 0.011543 23.566122 -4.753667
v 9.397898 28.985334 -4.753665
v 0.310548 23.048233 -4.622702
v 9.696902 28.467445 -4.622700
v 0.310548 23.048233 -4.884632
v 9.696902 28.467445 -4.884630
v 0.535404 22.658770 -4.753667
v 9.921759 28.077982 -4.753665
v -0.551419 22.625677 -3.910078
v -0.551419 23.582899 -3.910078
v 0.569517 22.625677 -3.910078
v 0.569517 23.582899 -3.910078
v -0.551419 22.625677 -4.959992
v -0.551419 23.582899 -4.959992
v 0.569517 22.625677 -4.959992
v 0.569517 23.582899 -4.959992
vt 0.375000 0.000000
vt 0.625000 0.000000
vt 0.625000 0.250000
vt 0.375000 0.250000
vt 0.375000 0.250000
vt 0.625000 0.250000
vt 0.625000 0.375000
vt 0.625000 0.500000
vt 0.375000 0.500000
vt 0.375000 0.375000
vt 0.375000 0.500000
vt 0.625000 0.500000
vt 0.625000 0.750000
vt 0.500000 0.750000
vt 0.375000 0.750000
vt 0.375000 0.625000
vt 0.375000 0.750000
vt 0.625000 0.750000
vt 0.625000 0.875000
vt 0.625000 1.000000
vt 0.500000 1.000000
vt 0.375000 1.000000
vt 0.125000 0.500000
vt 0.375000 0.500000
vt 0.375000 0.750000
vt 0.125000 0.750000
vt 0.625000 0.500000
vt 0.875000 0.500000
vt 0.875000 0.625000
vt 0.875000 0.750000
vt 0.625000 0.750000
vt 0.625000 0.625000
vt 0.375000 0.250000
vt 0.625000 0.250000
vt 0.625000 0.375000
vt 0.625000 0.500000
vt 0.375000 0.500000
vt 0.375000 0.375000
vt 0.375000 0.750000
vt 0.625000 0.750000
vt 0.625000 0.875000
vt 0.625000 1.000000
vt 0.500000 1.000000
vt 0.375000 1.000000
vt 0.375000 0.500000
vt 0.625000 0.500000
vt 0.625000 0.750000
vt 0.500000 0.750000
vt 0.375000 0.750000
vt 0.375000 0.625000
vt 0.125000 0.500000
vt 0.375000 0.500000
vt 0.375000 0.750000
vt 0.125000 0.750000
vt 0.375000 0.000000
vt 0.625000 0.000000
vt 0.625000 0.250000
vt 0.375000 0.250000
vt 0.625000 0.500000
vt 0.875000 0.500000
vt 0.875000 0.625000
vt 0.875000 0.750000
vt 0.625000 0.750000
vt 0.625000 0.625000
vt 0.375000 0.750000
vt 0.625000 0.750000
vt 0.625000 0.875000
vt 0.625000 1.000000
vt 0.500000 1.000000
vt 0.375000 1.000000
vt 0.125000 0.500000
vt 0.375000 0.500000
vt 0.375000 0.750000
vt 0.125000 0.750000
vt 0.375000 0.500000
vt 0.625000 0.500000
vt 0.625000 0.750000
vt 0.500000 0.750000
vt 0.375000 0.750000
vt 0.375000 0.625000
vt 0.375000 0.000000
vt 0.625000 0.000000
vt 0.625000 0.250000
vt 0.375000 0.250000
vt 0.375000 0.250000
vt 0.625000 0.250000
vt 0.625000 0.375000
vt 0.625000 0.500000
vt 0.375000 0.500000
vt 0.375000 0.375000
vt 0.625000 0.500000
vt 0.875000 0.500000
vt 0.875000 0.625000
vt 0.875000 0.750000
vt 0.625000 0.750000
vt 0.625000 0.625000
vt 0.000000 0.000000
vt 0.000000 0.000000
vt 0.000000 0.000000
vt 0.000000 0.000000
vt 0.000000 0.000000
vt 0.000000 0.000000
vt 0.000000 0.000000
vt 0.000000 0.000000
vn 0.2139 0.0000 -0.9768
vn -0.2796 0.0000 0.9601
vn 0.0000 -1.0000 -0.0000
vn 0.0000 1.0000 0.0000
vn 0.2139 0.0000 0.9768
vn -0.2796 0.0000 -0.9601
vn 0.1398 0.2421 0.9601
vn 0.8660 -0.5000 -0.0000
vn -0.8660 0.5000 0.0000
vn -0.1070 -0.1853 0.9768
vn -0.1070 -0.1853 -0.9768
vn 0.1398 0.2421 -0.9601
vn -0.8660 -0.5000 -0.0000
vn -0.1070 0.1853 0.9768
vn 0.8660 0.5000 -0.0000
vn -0.1070 0.1853 -0.9768
vn 0.1398 -0.2421 0.9601
vn 0.1398 -0.2421 -0.9601
vn 1.0000 0.0000 0.0000
vn 0.0000 0.0000 -1.0000
vn -1.0000 0.0000 0.0000
usemtl None
s off
f 10/1/1 9/2/1 5/3/1 6/4/1
f 8/5/2 7/6/2 2/7/2 11/8/2 12/9/2 4/10/2
f 10/11/3 6/12/3 8/13/3 4/14/3 12/15/3 3/16/3
f 5/17/4 9/18/4 1/19/4 11/20/4 2/21/4 7/22/4
f 6/23/5 5/24/5 7/25/5 8/26/5
f 12/27/6 11/28/6 1/29/6 9/30/6 10/31/6 3/32/6
f 17/33/7 18/34/7 23/35/7 14/36/7 13/37/7 21/38/7
f 20/39/8 16/40/8 24/41/8 14/42/8 23/43/8 18/44/8
f 15/45/9 19/46/9 17/47/9 21/48/9 13/49/9 22/50/9
f 19/51/10 20/52/10 18/53/10 17/54/10
f 15/55/11 16/56/11 20/57/11 19/58/11
f 13/59/12 14/60/12 24/61/12 16/62/12 15/63/12 22/64/12
f 29/65/13 33/66/13 25/67/13 35/68/13 26/69/13 31/70/13
f 30/71/14 29/72/14 31/73/14 32/74/14
f 34/75/15 30/76/15 32/77/15 28/78/15 36/79/15 27/80/15
f 34/81/16 33/82/16 29/83/16 30/84/16
f 32/85/17 31/86/17 26/87/17 35/88/17 36/89/17 28/90/17
f 36/91/18 35/92/18 25/93/18 33/94/18 34/95/18 27/96/18
f 40/97/19 39/98/19 43/99/19 44/100/19
f 43/99/20 41/101/20 42/102/20 44/100/20
f 37/103/21 38/104/21 42/102/21 41/101/21
f 38/104/4 40/97/4 44/100/4 42/102/4
f 39/98/3 37/103/3 41/101/3 43/99/3
