# Blender v3.0.0 OBJ File: 'hubschrauberlandplatform.blend'
# www.blender.org
mtllib hubschrauberlandplatform.mtl
o Cube
v 5.000000 19.582205 -1.000000
v 5.000000 19.582205 1.000000
v 3.000000 19.582205 1.000000
v 3.000000 19.582239 -1.000000
v 1.000000 19.582205 -1.000000
v -1.000000 19.582205 -1.000000
v 1.000000 19.582205 1.000000
v -1.000000 19.582205 1.000000
v 3.000000 19.582205 -5.000000
v 1.000000 19.582205 -5.000000
v 1.000000 19.582205 -3.000000
v 3.000000 19.582239 -3.000000
v 3.000000 19.582205 1.000000
v 1.000000 19.582205 1.000000
v 1.000000 19.582205 1.000000
v 3.000000 19.582205 1.000000
v 5.000000 19.582205 -5.000000
v 5.000000 19.582205 -3.000000
v 1.000000 19.582205 -3.000000
v -1.000000 19.582205 -3.000000
v 1.000000 19.582205 -5.000000
v -1.000000 19.582205 -5.000000
v -1.000000 19.647469 1.000000
v 1.000000 19.647469 1.000000
v 5.000000 19.647469 -1.000000
v 3.000000 19.647469 -1.000000
v -1.000000 19.647469 -1.000000
v 3.000000 19.647469 1.000000
v 1.000000 19.647469 -1.000000
v 5.000000 19.647469 1.000000
v 1.000000 19.647469 -3.000000
v 3.000000 19.647469 -3.000000
v 3.000000 19.647469 -5.000000
v 1.000000 19.647469 -5.000000
v 5.000000 19.647469 -3.000000
v 5.000000 19.647469 -5.000000
v 1.000000 19.647469 -3.000000
v -1.000000 19.647469 -3.000000
v 1.000000 19.647469 -5.000000
v -1.000000 19.647469 -5.000000
v 1.000000 19.647469 1.000000
v 1.000000 19.647469 -1.000000
vt 1.000000 0.000000
vt 1.000000 0.000000
vt 1.000000 0.000000
vt 1.000000 0.000000
vt 0.000000 0.000000
vt 0.000000 0.000000
vt 0.000000 0.000000
vt 0.000000 0.000000
vt 0.000000 0.000000
vt 0.000000 0.000000
vt 0.000000 0.000000
vt 0.000000 0.000000
vt 0.000000 0.000000
vt 0.000000 0.000000
vt 0.000000 0.000000
vt 0.000000 0.000000
vt 1.000000 0.000000
vt 1.000000 0.000000
vt 0.000000 0.000000
vt 0.000000 0.000000
vt 0.000000 0.000000
vt 0.000000 0.000000
vt 0.000000 0.000000
vt 0.000000 0.000000
vt 0.000000 0.000000
vt 0.000000 0.000000
vt 1.000000 1.000000
vt 1.000000 0.000000
vt 1.000000 0.000000
vt 1.000000 1.000000
vt 1.000000 0.000000
vt 1.000000 1.000000
vt 1.000000 1.000000
vt 1.000000 1.000000
vt 1.000000 1.000000
vt 1.000000 1.000000
vt 1.000000 1.000000
vt 1.000000 1.000000
vt 0.000000 1.000000
vt 1.000000 1.000000
vt 1.000000 1.000000
vt 0.000000 1.000000
vt 0.000000 0.000000
vt 0.000000 0.000000
vt 0.000000 0.000000
vt 0.000000 0.000000
vt 0.000000 0.000000
vt 0.000000 0.000000
vt 0.000000 0.000000
vt 0.000000 0.000000
vt 0.000000 0.000000
vt 0.000000 0.000000
vt 0.000000 0.000000
vt 0.000000 0.000000
vt 0.000000 0.000000
vt 0.000000 0.000000
vt 0.000000 0.000000
vt 0.000000 0.000000
vt 0.000000 0.000000
vt 0.000000 0.000000
vn 0.0000 0.0000 1.0000
vn 1.0000 0.0000 0.0000
vn -1.0000 0.0000 0.0000
vn 0.0000 1.0000 0.0000
vn 0.0000 0.0000 -1.0000
usemtl Material
s off
f 3/1/1 7/2/1 15/3/1 16/4/1
f 2/5/2 1/6/2 25/7/2 30/8/2
f 6/9/3 8/10/3 23/11/3 27/12/3
f 20/13/1 19/14/1 37/15/1 38/16/1
f 16/4/1 15/3/1 14/17/1 13/18/1
f 3/19/1 2/5/1 30/8/1 28/20/1
f 12/21/1 18/22/1 35/23/1 32/24/1
f 4/25/2 12/21/2 32/24/2 26/26/2
f 29/27/4 24/28/4 28/29/4 26/30/4
f 1/6/5 4/25/5 26/26/5 25/7/5
f 26/30/4 28/29/4 30/31/4 25/32/4
f 29/27/4 26/30/4 32/33/4 31/34/4
f 31/34/4 32/33/4 33/35/4 34/36/4
f 33/35/4 32/33/4 35/37/4 36/38/4
f 38/39/4 37/40/4 39/41/4 40/42/4
f 7/2/1 3/1/1 28/29/1 24/28/1
f 11/43/3 5/44/3 29/45/3 31/46/3
f 5/44/5 6/9/5 27/12/5 29/45/5
f 21/47/5 22/48/5 40/49/5 39/50/5
f 10/51/3 11/43/3 31/46/3 34/52/3
f 9/53/5 10/51/5 34/52/5 33/54/5
f 22/48/3 20/13/3 38/16/3 40/49/3
f 18/22/2 17/55/2 36/56/2 35/23/2
f 8/10/1 7/57/1 24/58/1 23/11/1
f 19/14/2 21/47/2 39/50/2 37/15/2
f 17/55/5 9/53/5 33/54/5 36/56/5
f 27/12/4 23/11/4 41/59/4 42/60/4
