# Blender v3.0.0 OBJ File: 'hubschrauberlandplatformv1.blend'
# www.blender.org
mtllib platform.mtl
o Cube
v 5.000000 19.582205 -1.000000
v 5.000000 19.582205 1.000000
v 3.000000 19.582205 1.000000
v 3.000000 19.582239 -1.000000
v 1.000000 19.582205 -1.000000
v -1.000000 19.582205 -1.000000
v 1.000000 19.582205 1.000000
v -1.000000 19.582205 1.000000
v 3.000000 19.582205 -5.000000
v 1.000000 19.582205 -5.000000
v 1.000000 19.582205 -3.000000
v 3.000000 19.582239 -3.000000
v 3.000000 19.582205 1.000000
v 1.000000 19.582205 1.000000
v 1.000000 19.582205 1.000000
v 3.000000 19.582205 1.000000
v 5.000000 19.582205 -5.000000
v 5.000000 19.582205 -3.000000
v 1.000000 19.582205 -3.000000
v -1.000000 19.582205 -3.000000
v 1.000000 19.582205 -5.000000
v -1.000000 19.582205 -5.000000
v -1.000000 19.647469 1.000000
v 1.000000 19.647469 1.000000
v 5.000000 19.647469 -1.000000
v 3.000000 19.647469 -1.000000
v -1.000000 19.647469 -1.000000
v 3.000000 19.647469 1.000000
v 1.000000 19.647469 -1.000000
v 5.000000 19.647469 1.000000
v 1.000000 19.647469 -3.000000
v 3.000000 19.647469 -3.000000
v 3.000000 19.647469 -5.000000
v 1.000000 19.647469 -5.000000
v 5.000000 19.647469 -3.000000
v 5.000000 19.647469 -5.000000
v 1.000000 19.647469 -3.000000
v -1.000000 19.647469 -3.000000
v 1.000000 19.647469 -5.000000
v -1.000000 19.647469 -5.000000
v -3.000000 19.582205 3.000000
v -3.000000 19.582205 -7.000000
v 7.000000 19.582205 3.000000
v 7.000000 19.582205 -7.000000
v 1.000000 19.647469 1.000000
v 1.000000 19.647469 -1.000000
v -3.000000 18.862152 -7.000000
v -3.000000 18.862152 3.000000
v 7.000000 18.862152 -7.000000
v 7.000000 18.862152 3.000000
v 7.677009 17.511494 -7.677009
v 7.677009 17.511494 3.677009
v -3.677009 17.511494 -7.677009
v -3.677009 17.511494 3.677009
v 7.677009 15.542000 -7.677009
v 7.677009 15.542000 3.677009
v -3.677009 15.542000 -7.677009
v -3.677009 15.542000 3.677009
v 14.154959 0.000000 -14.154959
v 14.154959 0.000000 18.208099
v -10.154959 0.000000 -14.154959
v -10.154959 0.000000 18.208099
v 4.331107 14.621820 13.417666
v -0.331107 14.621820 13.417666
v 6.991099 14.256758 18.558180
v -2.991099 14.256758 18.558180
v 24.641180 0.000000 30.491373
v -17.691280 18.521986 21.323067
v 11.296978 17.974499 31.143469
v -7.296978 17.974499 31.143469
v 23.621929 0.000000 38.598892
v -22.325384 28.606434 53.715145
v 13.626692 17.413130 41.726307
v -7.296978 24.256664 50.025913
v 26.177250 0.000000 44.237556
v -5.565583 20.933640 58.048889
v 8.130705 17.465363 52.555065
v -1.228740 26.552204 48.339031
v -24.551550 28.732380 39.504665
v -44.150558 25.029530 42.349548
v -29.773014 23.601900 36.138947
v -32.837013 23.165691 25.937162
v -45.908482 20.044012 45.477615
v -47.604160 16.580816 23.789619
v -52.120777 22.090063 56.024246
v -53.170204 0.000000 22.015968
v -182.524048 0.000000 -76.344757
v -15.886063 26.298674 71.625854
v -46.359749 25.720940 61.247654
v -16.886993 0.000000 69.094200
v -59.494656 0.037244 67.842766
v -1.463755 21.794325 101.910484
v 4.835941 22.355743 75.015533
v -11.880329 11.746499 110.636795
v -17.874989 0.000000 112.870422
v 9.705185 27.265245 100.724091
v 21.671930 23.907291 92.824905
v 12.405695 17.492134 106.823303
v 18.712746 10.693123 113.231728
v 8.000620 0.754687 118.355911
v 25.240990 0.000000 111.966797
v 21.845583 18.368090 66.453262
v 15.602611 12.871056 59.871140
v 27.944008 1.753075 62.566914
v 29.139549 0.000000 51.179882
v -182.524048 0.000000 166.344757
v 92.524048 0.000000 166.344757
v 92.524048 0.000000 -76.344757
v -58.961956 0.000000 26.787493
v -55.123493 0.000000 44.461998
v -18.301966 13.701492 103.008972
v -8.459071 16.800383 80.980820
v 26.224545 13.701492 102.007614
v -17.340029 14.207344 82.463142
v 27.713158 0.000000 71.503685
v -17.625700 0.000000 81.817307
v -18.794447 0.000000 103.057121
v 25.732063 0.000000 102.055763
v 26.900810 0.000000 80.815948
v 27.186481 14.207344 81.461784
vt 1.000000 0.000000
vt 1.000000 0.000000
vt 1.000000 0.000000
vt 1.000000 0.000000
vt 0.000000 0.000000
vt 0.000000 0.000000
vt 0.000000 0.000000
vt 0.000000 0.000000
vt 0.000000 0.000000
vt 0.000000 0.000000
vt 0.000000 0.000000
vt 0.000000 0.000000
vt 0.000000 0.000000
vt 0.000000 0.000000
vt 0.000000 0.000000
vt 0.000000 0.000000
vt 1.000000 0.000000
vt 1.000000 0.000000
vt 0.000000 0.000000
vt 0.000000 0.000000
vt 0.000000 0.000000
vt 0.000000 0.000000
vt 0.000000 0.000000
vt 0.000000 0.000000
vt 0.000000 0.000000
vt 0.000000 0.000000
vt 1.000000 1.000000
vt 1.000000 0.000000
vt 1.000000 0.000000
vt 1.000000 1.000000
vt 1.000000 0.000000
vt 1.000000 1.000000
vt 1.000000 1.000000
vt 1.000000 1.000000
vt 1.000000 1.000000
vt 1.000000 1.000000
vt 1.000000 1.000000
vt 1.000000 1.000000
vt 0.000000 1.000000
vt 1.000000 1.000000
vt 1.000000 1.000000
vt 0.000000 1.000000
vt 0.000000 0.000000
vt 0.000000 0.000000
vt 0.000000 0.000000
vt 0.000000 0.000000
vt 0.000000 0.000000
vt 0.000000 0.000000
vt 0.000000 0.000000
vt 0.000000 0.000000
vt 0.000000 0.000000
vt 0.000000 0.000000
vt 0.000000 0.000000
vt 0.000000 0.000000
vt 0.000000 0.000000
vt 0.000000 0.000000
vt 0.000000 0.000000
vt 0.000000 0.000000
vt 0.000000 0.000000
vt 0.000000 0.000000
vt 0.000000 0.000000
vt 0.000000 0.000000
vt 0.000000 0.000000
vt 0.000000 0.000000
vt 0.000000 0.000000
vt 0.000000 0.000000
vt 0.000000 0.000000
vt 0.000000 0.000000
vt 0.000000 0.000000
vt 0.000000 0.000000
vt 0.000000 0.000000
vt 0.000000 0.000000
vt 0.000000 0.000000
vt 0.000000 0.000000
vt 0.000000 0.000000
vt 0.000000 0.000000
vt 0.000000 0.000000
vt 0.000000 0.000000
vt 0.000000 0.000000
vt 0.000000 0.000000
vt 0.000000 0.000000
vt 0.000000 0.000000
vt 0.000000 0.000000
vt 0.000000 0.000000
vt 0.000000 0.000000
vt 0.000000 0.000000
vt 0.000000 0.000000
vt 0.000000 0.000000
vt 0.000000 0.000000
vt 0.000000 0.000000
vt 0.000000 0.000000
vt 0.000000 0.000000
vt 0.000000 0.000000
vt 0.000000 0.000000
vt 0.000000 0.000000
vt 0.000000 0.000000
vt 0.000000 0.000000
vt 0.000000 0.000000
vt 0.000000 0.000000
vt 0.000000 0.000000
vt 0.000000 0.000000
vt 0.000000 0.000000
vt 0.000000 0.000000
vt 0.000000 0.000000
vt 0.000000 0.000000
vt 0.000000 0.000000
vt 0.000000 0.000000
vt 0.000000 0.000000
vt 0.000000 0.000000
vt 0.000000 0.000000
vt 0.000000 0.000000
vt 0.000000 0.000000
vt 0.000000 0.000000
vt 0.000000 0.000000
vt 0.000000 0.000000
vt 0.000000 0.000000
vt 0.000000 0.000000
vt 0.000000 0.000000
vt 0.000000 0.000000
vt 0.000000 0.000000
vt 0.000000 0.000000
vt 0.000000 0.000000
vt 0.000000 0.000000
vt 0.000000 0.000000
vt 0.000000 0.000000
vt 0.000000 0.000000
vt 0.000000 0.000000
vt 0.000000 0.000000
vt 0.000000 0.000000
vt 0.000000 0.000000
vt 0.000000 0.000000
vt 0.000000 0.000000
vt 0.000000 0.000000
vt 0.000000 0.000000
vt 0.000000 0.000000
vt 0.000000 0.000000
vt 0.000000 0.000000
vt 0.000000 0.000000
vn 0.0000 0.0000 1.0000
vn 1.0000 0.0000 0.0000
vn -1.0000 0.0000 0.0000
vn 0.0000 1.0000 0.0000
vn 0.0000 0.0000 -1.0000
vn 0.0000 0.4481 -0.8940
vn -0.8940 0.4481 0.0000
vn 0.0000 0.4481 0.8940
vn 0.8940 0.4481 0.0000
vn 0.0000 0.3847 -0.9230
vn 0.0000 -1.0000 0.0000
vn -0.9230 0.3847 0.0000
vn -0.8134 0.5751 0.0872
vn 0.9230 0.3847 0.0000
vn 0.0000 0.9975 0.0708
vn 0.2256 0.9632 -0.1463
vn 0.8134 0.5751 0.0872
vn 0.0000 0.9956 0.0940
vn 0.8320 0.5532 -0.0417
vn -0.2687 -0.5901 0.7613
vn 0.0000 0.9590 -0.2833
vn 0.7230 0.4756 -0.5011
vn 0.1774 0.9222 0.3437
vn 0.1266 0.9719 -0.1987
vn 0.2782 0.8265 -0.4893
vn -0.4572 -0.8759 0.1543
vn 0.4197 0.3009 0.8563
vn -0.4602 -0.8570 0.2319
vn 0.7936 0.5922 0.1398
vn 0.4241 0.8704 -0.2501
vn -0.3421 0.9397 0.0026
vn -0.1803 0.9829 0.0370
vn -0.5650 0.7855 -0.2525
vn -0.0577 0.9355 -0.3486
vn -0.0955 0.2471 -0.9643
vn 0.0161 0.5824 -0.8128
vn 0.3412 -0.8386 0.4247
vn -0.8174 0.5378 -0.2064
vn 0.4034 -0.7730 0.4896
vn 0.0738 0.9064 -0.4158
vn 0.0874 -0.1305 0.9876
vn -0.3046 0.3801 0.8734
vn 0.9950 -0.0361 -0.0932
vn -0.7339 0.4948 0.4654
vn 0.0852 -0.6178 -0.7817
vn -0.1927 -0.9806 0.0373
vn 0.0293 0.0947 -0.9951
vn 0.7965 0.0278 -0.6041
vn -0.4271 -0.6810 -0.5948
vn 0.0623 -0.4207 -0.9051
vn -0.3496 -0.1033 -0.9312
vn 0.1511 -0.9759 0.1577
vn -0.0279 0.4447 0.8952
vn -0.7223 -0.3720 -0.5831
vn -0.6535 -0.6202 0.4338
vn -0.0569 -0.9435 0.3265
vn 0.5138 -0.8219 -0.2461
vn 0.7072 0.7053 -0.0498
vn 0.5841 0.8067 -0.0900
vn 0.6173 0.7589 -0.2072
vn 0.2702 0.9622 -0.0338
vn 0.9981 -0.0227 0.0579
vn -0.9579 0.2241 -0.1794
vn 0.8730 0.3200 -0.3681
vn -0.9416 -0.3250 -0.0881
vn 0.9770 -0.0217 -0.2122
vn -0.5007 -0.6917 -0.5205
vn 0.4331 -0.9014 -0.0019
vn 0.0225 0.0027 0.9997
vn -0.9959 0.0240 -0.0869
vn -0.9361 -0.2245 0.2709
vn 0.3492 -0.7941 -0.4975
vn 0.2974 -0.9463 0.1264
vn 0.3056 -0.6473 0.6983
vn -0.8934 -0.4461 -0.0528
vn -0.9981 0.0357 -0.0495
vn -0.0225 0.0459 -0.9987
vn 0.0006 0.9997 0.0246
vn -0.7966 -0.5926 0.1192
vn 0.1828 -0.5990 -0.7796
vn 0.6272 -0.4420 -0.6413
usemtl Material
s off
f 3/1/1 7/2/1 15/3/1 16/4/1
f 2/5/2 1/6/2 25/7/2 30/8/2
f 6/9/3 8/10/3 23/11/3 27/12/3
f 20/13/1 19/14/1 37/15/1 38/16/1
f 16/4/1 15/3/1 14/17/1 13/18/1
f 3/19/1 2/5/1 30/8/1 28/20/1
f 12/21/1 18/22/1 35/23/1 32/24/1
f 4/25/2 12/21/2 32/24/2 26/26/2
f 29/27/4 24/28/4 28/29/4 26/30/4
f 1/6/5 4/25/5 26/26/5 25/7/5
f 26/30/4 28/29/4 30/31/4 25/32/4
f 29/27/4 26/30/4 32/33/4 31/34/4
f 31/34/4 32/33/4 33/35/4 34/36/4
f 33/35/4 32/33/4 35/37/4 36/38/4
f 38/39/4 37/40/4 39/41/4 40/42/4
f 7/2/1 3/1/1 28/29/1 24/28/1
f 11/43/3 5/44/3 29/45/3 31/46/3
f 5/44/5 6/9/5 27/12/5 29/45/5
f 21/47/5 22/48/5 40/49/5 39/50/5
f 10/51/3 11/43/3 31/46/3 34/52/3
f 9/53/5 10/51/5 34/52/5 33/54/5
f 22/48/3 20/13/3 38/16/3 40/49/3
f 18/22/2 17/55/2 36/56/2 35/23/2
f 8/10/1 7/57/1 24/58/1 23/11/1
f 19/14/2 21/47/2 39/50/2 37/15/2
f 17/55/5 9/53/5 33/54/5 36/56/5
f 47/59/6 49/60/6 51/61/6 53/62/6
f 41/63/4 43/64/4 44/65/4 42/66/4
f 27/12/4 23/11/4 45/67/4 46/68/4
f 43/64/1 41/63/1 48/69/1 50/70/1
f 41/63/3 42/66/3 47/59/3 48/69/3
f 42/66/5 44/65/5 49/60/5 47/59/5
f 44/65/2 43/64/2 50/70/2 49/60/2
f 52/71/1 54/72/1 58/73/1 56/74/1
f 48/69/7 47/59/7 53/62/7 54/72/7
f 50/70/8 48/69/8 54/72/8 52/71/8
f 49/60/9 50/70/9 52/71/9 51/61/9
f 57/75/10 55/76/10 59/77/10 61/78/10
f 51/61/2 52/71/2 56/74/2 55/76/2
f 53/62/5 51/61/5 55/76/5 57/75/5
f 54/72/3 53/62/3 57/75/3 58/73/3
f 62/79/11 61/78/11 59/77/11 60/80/11
f 58/73/12 57/75/12 61/78/12 62/79/12
f 58/73/13 62/79/13 66/81/13 64/82/13
f 55/76/14 56/74/14 60/80/14 59/77/14
f 63/83/15 64/82/15 66/81/15 65/84/15
f 70/85/16 68/86/16 82/87/16 81/88/16
f 60/80/17 56/74/17 63/83/17 65/84/17
f 56/74/18 58/73/18 64/82/18 63/83/18
f 67/89/19 69/90/19 73/91/19 71/92/19
f 62/79/20 60/80/20 67/89/20 68/86/20
f 65/84/21 66/81/21 70/85/21 69/90/21
f 60/80/22 65/84/22 69/90/22 67/89/22
f 74/93/23 72/94/23 76/95/23 78/96/23
f 69/90/24 70/85/24 74/93/24 73/91/24
f 74/93/25 70/85/25 81/88/25 79/97/25
f 68/86/26 67/89/26 71/92/26 72/94/26
f 76/95/27 75/98/27 77/99/27 78/96/27
f 72/94/28 71/92/28 75/98/28 76/95/28
f 71/92/29 73/91/29 77/99/29 75/98/29
f 73/91/30 74/93/30 78/96/30 77/99/30
f 72/94/31 80/100/31 83/101/31 85/102/31
f 72/94/32 79/97/32 80/100/32
f 80/100/33 82/87/33 84/103/33 83/101/33
f 81/88/34 82/87/34 80/100/34 79/97/34
f 82/87/35 68/86/35 86/104/35 84/103/35
f 66/81/36 62/79/36 68/86/36 70/85/36
f 68/86/37 72/94/37 85/102/37 86/104/37
f 86/104/38 85/102/38 83/101/38 84/103/38
f 86/104/39 85/102/39 109/105/39
f 85/102/40 89/106/40 88/107/40 76/95/40
f 86/104/41 62/79/41 68/86/41
f 88/107/42 89/106/42 91/108/42
f 117/109/43 111/110/43 95/111/43
f 89/106/44 85/102/44 91/108/44
f 94/112/45 92/113/45 96/114/45 98/115/45
f 88/107/46 76/95/46 93/116/46 92/113/46
f 90/117/47 91/108/47 88/107/47
f 90/117/48 88/107/48 112/118/48
f 96/114/49 97/119/49 99/120/49 98/115/49
f 95/111/50 94/112/50 98/115/50 99/120/50
f 100/121/51 99/120/51 101/122/51
f 92/113/52 93/116/52 97/119/52 96/114/52
f 72/94/53 85/102/53 76/95/53
f 101/122/54 99/120/54 113/123/54
f 102/124/55 103/125/55 105/126/55 104/127/55
f 97/119/56 93/116/56 103/125/56 102/124/56
f 76/95/57 78/96/57 93/116/57
f 78/96/58 93/116/58 77/99/58
f 77/99/59 93/116/59 103/125/59
f 105/126/60 75/98/60 77/99/60 103/125/60
f 87/128/4 106/129/4 107/130/4 108/131/4
f 74/93/61 79/97/61 72/94/61
f 116/132/62 90/117/62 114/133/62
f 91/108/63 85/102/63 110/134/63
f 112/118/64 88/107/64 92/113/64
f 104/127/65 115/135/65 102/124/65
f 109/105/66 85/102/66 110/134/66
f 99/120/67 97/119/67 113/123/67
f 114/133/68 92/113/68 111/110/68
f 111/110/69 117/109/69 118/136/69 113/123/69
f 119/137/70 120/138/70 115/135/70
f 115/135/71 120/138/71 102/124/71
f 92/113/72 94/112/72 111/110/72
f 112/118/73 92/113/73 114/133/73
f 114/133/74 90/117/74 112/118/74
f 97/119/75 120/138/75 113/123/75
f 113/123/76 118/136/76 101/122/76
f 116/132/77 114/133/77 120/138/77 119/137/77
f 114/133/78 111/110/78 113/123/78 120/138/78
f 102/124/79 120/138/79 97/119/79
f 95/111/80 99/120/80 100/121/80
f 95/111/81 111/110/81 94/112/81
