# Blender v3.0.0 OBJ File: 'hubschrauberlandplatformv1.blend'
# www.blender.org
mtllib platform.mtl
o Cube
v 5.000000 19.582205 -1.000000
v 5.000000 19.582205 1.000000
v 3.000000 19.582205 1.000000
v 3.000000 19.582239 -1.000000
v 1.000000 19.582205 -1.000000
v -1.000000 19.582205 -1.000000
v 1.000000 19.582205 1.000000
v -1.000000 19.582205 1.000000
v 3.000000 19.582205 -5.000000
v 1.000000 19.582205 -5.000000
v 1.000000 19.582205 -3.000000
v 3.000000 19.582239 -3.000000
v 3.000000 19.582205 1.000000
v 1.000000 19.582205 1.000000
v 1.000000 19.582205 1.000000
v 3.000000 19.582205 1.000000
v 5.000000 19.582205 -5.000000
v 5.000000 19.582205 -3.000000
v 1.000000 19.582205 -3.000000
v -1.000000 19.582205 -3.000000
v 1.000000 19.582205 -5.000000
v -1.000000 19.582205 -5.000000
v -1.000000 19.647469 1.000000
v 1.000000 19.647469 1.000000
v 5.000000 19.647469 -1.000000
v 3.000000 19.647469 -1.000000
v -1.000000 19.647469 -1.000000
v 3.000000 19.647469 1.000000
v 1.000000 19.647469 -1.000000
v 5.000000 19.647469 1.000000
v 1.000000 19.647469 -3.000000
v 3.000000 19.647469 -3.000000
v 3.000000 19.647469 -5.000000
v 1.000000 19.647469 -5.000000
v 5.000000 19.647469 -3.000000
v 5.000000 19.647469 -5.000000
v 1.000000 19.647469 -3.000000
v -1.000000 19.647469 -3.000000
v 1.000000 19.647469 -5.000000
v -1.000000 19.647469 -5.000000
v -3.000000 19.582205 3.000000
v -3.000000 19.582205 -7.000000
v 7.000000 19.582205 3.000000
v 7.000000 19.582205 -7.000000
v 1.000000 19.647469 1.000000
v 1.000000 19.647469 -1.000000
v -3.000000 18.862152 -7.000000
v -3.000000 18.862152 3.000000
v 7.000000 18.862152 -7.000000
v 7.000000 18.862152 3.000000
v 7.677009 17.511494 -7.677009
v 7.677009 17.511494 3.677009
v -3.677009 17.511494 -7.677009
v -3.677009 17.511494 3.677009
v 7.677009 15.542000 -7.677009
v 7.677009 15.542000 3.677009
v -3.677009 15.542000 -7.677009
v -3.677009 15.542000 3.677009
v 14.154959 -2.460215 -14.154959
v 14.154959 -1.693300 18.208099
v -10.154959 -2.460215 -14.154959
v -10.154959 -1.693295 18.208099
v 4.331107 14.621820 13.417666
v -0.331107 14.621820 13.417666
v 6.991099 14.256758 18.558180
v -2.991099 14.256758 18.558180
v 24.641180 -0.238646 30.491373
v -20.641180 -0.238646 30.491373
v 11.296978 17.974499 31.143469
v -7.296978 17.974499 31.143469
v 23.621929 -0.800013 38.598892
v -15.508232 15.225538 52.238075
v 13.626692 17.413130 41.726307
v -7.296978 24.256664 50.025913
v 26.177250 -4.015636 44.237556
v -12.977871 22.004526 74.301903
v 8.164888 13.184200 56.238678
v -4.164888 13.184200 56.238678
v -31.577532 26.645914 45.584042
v -44.150558 25.029530 42.349548
v -33.264626 20.895056 41.435673
v -43.241383 17.785521 29.833796
v -51.854107 20.044012 45.841633
v -55.127197 16.580816 41.869183
v -26.251360 4.596380 54.032768
v -40.186893 -2.065892 33.421864
v -130.000000 0.000000 -30.000000
v -20.183928 14.187035 81.772224
v -36.984848 8.379078 62.808117
v -19.760208 -4.075664 85.794998
v -27.504257 2.100884 93.112495
v -44.368698 -1.949616 76.090546
v 2.214140 15.464996 101.793106
v 0.648036 14.078180 88.899399
v -9.838451 5.422223 103.498932
v -0.270499 1.721356 99.980850
v 9.705185 27.265245 100.724091
v 21.730259 14.089792 96.730171
v 7.175683 15.155640 117.473846
v 18.712746 10.693123 113.231728
v 5.514927 -2.309273 99.389359
v 9.571692 -4.996530 85.197289
v 25.240990 -1.251655 111.966797
v 28.258503 2.145013 95.465240
v 25.053474 11.617729 72.599083
v 16.806973 3.782697 58.196632
v 38.500534 1.753075 65.479057
v 32.779732 -2.807856 51.422562
v -130.000000 0.000000 120.000000
v 40.000000 0.000000 120.000000
v 40.000000 0.000000 -30.000000
vt 1.000000 0.000000
vt 1.000000 0.000000
vt 1.000000 0.000000
vt 1.000000 0.000000
vt 0.000000 0.000000
vt 0.000000 0.000000
vt 0.000000 0.000000
vt 0.000000 0.000000
vt 0.000000 0.000000
vt 0.000000 0.000000
vt 0.000000 0.000000
vt 0.000000 0.000000
vt 0.000000 0.000000
vt 0.000000 0.000000
vt 0.000000 0.000000
vt 0.000000 0.000000
vt 1.000000 0.000000
vt 1.000000 0.000000
vt 0.000000 0.000000
vt 0.000000 0.000000
vt 0.000000 0.000000
vt 0.000000 0.000000
vt 0.000000 0.000000
vt 0.000000 0.000000
vt 0.000000 0.000000
vt 0.000000 0.000000
vt 1.000000 1.000000
vt 1.000000 0.000000
vt 1.000000 0.000000
vt 1.000000 1.000000
vt 1.000000 0.000000
vt 1.000000 1.000000
vt 1.000000 1.000000
vt 1.000000 1.000000
vt 1.000000 1.000000
vt 1.000000 1.000000
vt 1.000000 1.000000
vt 1.000000 1.000000
vt 0.000000 1.000000
vt 1.000000 1.000000
vt 1.000000 1.000000
vt 0.000000 1.000000
vt 0.000000 0.000000
vt 0.000000 0.000000
vt 0.000000 0.000000
vt 0.000000 0.000000
vt 0.000000 0.000000
vt 0.000000 0.000000
vt 0.000000 0.000000
vt 0.000000 0.000000
vt 0.000000 0.000000
vt 0.000000 0.000000
vt 0.000000 0.000000
vt 0.000000 0.000000
vt 0.000000 0.000000
vt 0.000000 0.000000
vt 0.000000 0.000000
vt 0.000000 0.000000
vt 0.000000 0.000000
vt 0.000000 0.000000
vt 0.000000 0.000000
vt 0.000000 0.000000
vt 0.000000 0.000000
vt 0.000000 0.000000
vt 0.000000 0.000000
vt 0.000000 0.000000
vt 0.000000 0.000000
vt 0.000000 0.000000
vt 0.000000 0.000000
vt 0.000000 0.000000
vt 0.000000 0.000000
vt 0.000000 0.000000
vt 0.000000 0.000000
vt 0.000000 0.000000
vt 0.000000 0.000000
vt 0.000000 0.000000
vt 0.000000 0.000000
vt 0.000000 0.000000
vt 0.000000 0.000000
vt 0.000000 0.000000
vt 0.000000 0.000000
vt 0.000000 0.000000
vt 0.000000 0.000000
vt 0.000000 0.000000
vt 0.000000 0.000000
vt 0.000000 0.000000
vt 0.000000 0.000000
vt 0.000000 0.000000
vt 0.000000 0.000000
vt 0.000000 0.000000
vt 0.000000 0.000000
vt 0.000000 0.000000
vt 0.000000 0.000000
vt 0.000000 0.000000
vt 0.000000 0.000000
vt 0.000000 0.000000
vt 0.000000 0.000000
vt 0.000000 0.000000
vt 0.000000 0.000000
vt 0.000000 0.000000
vt 0.000000 0.000000
vt 0.000000 0.000000
vt 0.000000 0.000000
vt 0.000000 0.000000
vt 0.000000 0.000000
vt 0.000000 0.000000
vt 0.000000 0.000000
vt 0.000000 0.000000
vt 0.000000 0.000000
vt 0.000000 0.000000
vt 0.000000 0.000000
vt 0.000000 0.000000
vt 0.000000 0.000000
vt 0.000000 0.000000
vt 0.000000 0.000000
vt 0.000000 0.000000
vt 0.000000 0.000000
vt 0.000000 0.000000
vt 0.000000 0.000000
vt 0.000000 0.000000
vt 0.000000 0.000000
vt 0.000000 0.000000
vt 0.000000 0.000000
vt 0.000000 0.000000
vt 0.000000 0.000000
vt 0.000000 0.000000
vt 0.000000 0.000000
vt 0.000000 0.000000
vt 0.000000 0.000000
vn 0.0000 0.0000 1.0000
vn 1.0000 0.0000 0.0000
vn -1.0000 0.0000 0.0000
vn 0.0000 1.0000 0.0000
vn 0.0000 0.0000 -1.0000
vn 0.0000 0.4481 -0.8940
vn -0.8940 0.4481 0.0000
vn 0.0000 0.4481 0.8940
vn 0.8940 0.4481 0.0000
vn 0.0000 0.3386 -0.9409
vn -0.0000 -0.9997 0.0237
vn -0.9390 0.3439 -0.0060
vn -0.8424 0.5321 0.0848
vn 0.9390 0.3439 -0.0060
vn 0.0000 0.9975 0.0708
vn 0.0296 0.4735 -0.8803
vn 0.8424 0.5321 0.0848
vn 0.0000 0.9956 0.0940
vn 0.8405 0.5412 -0.0264
vn -0.0000 -0.9931 0.1176
vn 0.0000 0.9590 -0.2833
vn 0.7235 0.4497 -0.5238
vn 0.1338 0.9834 0.1225
vn 0.1266 0.9719 -0.1987
vn 0.0393 0.8844 -0.4650
vn -0.0946 -0.8854 0.4550
vn 0.5518 0.7929 0.2587
vn -0.3820 -0.9051 0.1866
vn 0.8061 0.5078 0.3039
vn 0.3012 0.7506 0.5881
vn -0.1020 0.4250 0.8994
vn -0.1901 0.2807 0.9408
vn -0.5483 0.7351 -0.3987
vn 0.2381 0.7605 -0.6041
vn -0.4016 -0.2224 -0.8884
vn -0.7235 0.4497 -0.5238
vn 0.4021 -0.8733 0.2752
vn -0.5090 -0.6098 0.6075
vn -0.3822 0.9232 -0.0400
vn -0.3996 0.8898 -0.2203
vn 0.1234 -0.9677 0.2200
vn 0.4722 -0.7163 -0.5138
vn 0.5762 -0.7457 -0.3347
vn -0.6629 -0.3660 -0.6531
vn 0.7088 -0.6643 -0.2374
vn 0.0898 -0.9566 -0.2772
vn -0.5486 0.5024 0.6683
vn 0.1452 0.8357 -0.5297
vn -0.6340 -0.6549 -0.4112
vn 0.0701 0.7765 -0.6262
vn 0.4254 0.4210 -0.8011
vn 0.1296 -0.7098 0.6923
vn -0.7082 0.6936 -0.1319
vn -0.1959 0.9804 -0.0225
vn -0.8607 -0.4441 -0.2488
vn -0.7576 -0.6337 -0.1564
vn 0.8212 0.4600 0.3377
vn -0.2414 -0.8407 0.4847
vn 0.7367 0.5598 0.3794
vn -0.3132 0.9396 -0.1378
vn 0.0693 -0.9659 0.2495
vn -0.5838 -0.8046 0.1081
vn 0.0000 0.9996 -0.0274
vn 0.7131 0.6858 0.1454
vn 0.5245 0.8431 -0.1189
usemtl Material
s off
f 3/1/1 7/2/1 15/3/1 16/4/1
f 2/5/2 1/6/2 25/7/2 30/8/2
f 6/9/3 8/10/3 23/11/3 27/12/3
f 20/13/1 19/14/1 37/15/1 38/16/1
f 16/4/1 15/3/1 14/17/1 13/18/1
f 3/19/1 2/5/1 30/8/1 28/20/1
f 12/21/1 18/22/1 35/23/1 32/24/1
f 4/25/2 12/21/2 32/24/2 26/26/2
f 29/27/4 24/28/4 28/29/4 26/30/4
f 1/6/5 4/25/5 26/26/5 25/7/5
f 26/30/4 28/29/4 30/31/4 25/32/4
f 29/27/4 26/30/4 32/33/4 31/34/4
f 31/34/4 32/33/4 33/35/4 34/36/4
f 33/35/4 32/33/4 35/37/4 36/38/4
f 38/39/4 37/40/4 39/41/4 40/42/4
f 7/2/1 3/1/1 28/29/1 24/28/1
f 11/43/3 5/44/3 29/45/3 31/46/3
f 5/44/5 6/9/5 27/12/5 29/45/5
f 21/47/5 22/48/5 40/49/5 39/50/5
f 10/51/3 11/43/3 31/46/3 34/52/3
f 9/53/5 10/51/5 34/52/5 33/54/5
f 22/48/3 20/13/3 38/16/3 40/49/3
f 18/22/2 17/55/2 36/56/2 35/23/2
f 8/10/1 7/57/1 24/58/1 23/11/1
f 19/14/2 21/47/2 39/50/2 37/15/2
f 17/55/5 9/53/5 33/54/5 36/56/5
f 47/59/6 49/60/6 51/61/6 53/62/6
f 41/63/4 43/64/4 44/65/4 42/66/4
f 27/12/4 23/11/4 45/67/4 46/68/4
f 43/64/1 41/63/1 48/69/1 50/70/1
f 41/63/3 42/66/3 47/59/3 48/69/3
f 42/66/5 44/65/5 49/60/5 47/59/5
f 44/65/2 43/64/2 50/70/2 49/60/2
f 52/71/1 54/72/1 58/73/1 56/74/1
f 48/69/7 47/59/7 53/62/7 54/72/7
f 50/70/8 48/69/8 54/72/8 52/71/8
f 49/60/9 50/70/9 52/71/9 51/61/9
f 57/75/10 55/76/10 59/77/10 61/78/10
f 51/61/2 52/71/2 56/74/2 55/76/2
f 53/62/5 51/61/5 55/76/5 57/75/5
f 54/72/3 53/62/3 57/75/3 58/73/3
f 62/79/11 61/78/11 59/77/11 60/80/11
f 58/73/12 57/75/12 61/78/12 62/79/12
f 58/73/13 62/79/13 66/81/13 64/82/13
f 55/76/14 56/74/14 60/80/14 59/77/14
f 63/83/15 64/82/15 66/81/15 65/84/15
f 70/85/16 68/86/16 82/87/16 81/88/16
f 60/80/17 56/74/17 63/83/17 65/84/17
f 56/74/18 58/73/18 64/82/18 63/83/18
f 67/89/19 69/90/19 73/91/19 71/92/19
f 62/79/20 60/80/20 67/89/20 68/86/20
f 65/84/21 66/81/21 70/85/21 69/90/21
f 60/80/22 65/84/22 69/90/22 67/89/22
f 74/93/23 72/94/23 76/95/23 78/96/23
f 69/90/24 70/85/24 74/93/24 73/91/24
f 74/93/25 70/85/25 81/88/25 79/97/25
f 68/86/26 67/89/26 71/92/26 72/94/26
f 76/95/27 75/98/27 77/99/27 78/96/27
f 72/94/28 71/92/28 75/98/28 76/95/28
f 71/92/29 73/91/29 77/99/29 75/98/29
f 73/91/30 74/93/30 78/96/30 77/99/30
f 72/94/31 80/100/31 83/101/31 85/102/31
f 72/94/32 74/93/32 79/97/32 80/100/32
f 80/100/33 82/87/33 84/103/33 83/101/33
f 81/88/34 82/87/34 80/100/34 79/97/34
f 82/87/35 68/86/35 86/104/35 84/103/35
f 66/81/36 62/79/36 68/86/36 70/85/36
f 68/86/37 72/94/37 85/102/37 86/104/37
f 86/104/38 85/102/38 83/101/38 84/103/38
f 92/105/39 85/102/39 86/104/39
f 85/102/40 89/106/40 88/107/40 76/95/40
f 86/104/41 62/79/41 68/86/41
f 91/108/42 88/107/42 93/109/42 95/110/42
f 89/106/43 88/107/43 91/108/43 92/105/43
f 89/106/44 85/102/44 92/105/44
f 95/110/45 93/109/45 97/111/45 99/112/45
f 88/107/46 76/95/46 94/113/46 93/109/46
f 76/95/47 90/114/47 96/115/47 94/113/47
f 90/114/48 91/108/48 95/110/48 96/115/48
f 97/111/49 98/116/49 100/117/49 99/112/49
f 96/115/50 95/110/50 99/112/50 100/117/50
f 96/115/51 100/117/51 103/118/51 101/119/51
f 93/109/52 94/113/52 98/116/52 97/111/52
f 72/94/53 85/102/53 76/95/53
f 102/120/54 101/119/54 103/118/54 104/121/54
f 100/117/55 98/116/55 104/121/55 103/118/55
f 104/121/56 98/116/56 105/122/56 107/123/56
f 94/113/57 96/115/57 101/119/57 102/120/57
f 105/122/58 106/124/58 108/125/58 107/123/58
f 94/113/59 102/120/59 108/125/59 106/124/59
f 102/120/60 104/121/60 107/123/60 108/125/60
f 98/116/61 94/113/61 106/124/61 105/122/61
f 76/95/62 78/96/62 94/113/62
f 78/96/63 94/113/63 77/99/63
f 77/99/64 94/113/64 106/124/64
f 108/125/65 75/98/65 77/99/65 106/124/65
f 87/126/4 109/127/4 110/128/4 111/129/4
