# Blender v3.0.0 OBJ File: 'Windrad.blend'
# www.blender.org
mtllib Windrad.mtl
o Cylinder
v -0.000000 -1.055635 -2.055635
v -0.000000 3.055635 -2.055635
v 0.401034 -1.055635 -2.016136
v 0.401034 3.055635 -2.016136
v 0.786657 -1.055635 -1.899159
v 0.786657 3.055635 -1.899159
v 1.142049 -1.055635 -1.709198
v 1.142049 3.055635 -1.709198
v 1.453553 -1.055635 -1.453553
v 1.453553 3.055635 -1.453553
v 1.709198 -1.055635 -1.142050
v 1.709198 3.055635 -1.142050
v 1.899159 -1.055635 -0.786657
v 1.899159 3.055635 -0.786657
v 2.016136 -1.055635 -0.401035
v 2.016136 3.055635 -0.401035
v 2.055634 -1.055635 0.000000
v 2.055634 3.055635 0.000000
v 2.016136 -1.055635 0.401034
v 2.016136 3.055635 0.401034
v 1.899159 -1.055635 0.786657
v 1.899159 3.055635 0.786657
v 1.709198 -1.055635 1.142049
v 1.709198 3.055635 1.142049
v 1.453553 -1.055635 1.453553
v 1.453553 3.055635 1.453553
v 1.142049 -1.055635 1.709198
v 1.142049 3.055635 1.709198
v 0.786657 -1.055635 1.899159
v 0.786657 3.055635 1.899159
v 0.401034 -1.055635 2.016136
v 0.401034 3.055635 2.016136
v -0.000000 -1.055635 2.055635
v -0.000000 3.055635 2.055635
v -0.401034 -1.055635 2.016136
v -0.401034 3.055635 2.016136
v -0.786657 -1.055635 1.899159
v -0.786657 3.055635 1.899159
v -1.142050 -1.055635 1.709198
v -1.142050 3.055635 1.709198
v -1.453553 -1.055635 1.453553
v -1.453553 3.055635 1.453553
v -1.709198 -1.055635 1.142050
v -1.709198 3.055635 1.142050
v -1.899159 -1.055635 0.786658
v -1.899159 3.055635 0.786658
v -2.016136 -1.055635 0.401035
v -2.016136 3.055635 0.401035
v -2.055635 -1.055635 -0.000000
v -2.055635 3.055635 -0.000000
v -2.016136 -1.055635 -0.401035
v -2.016136 3.055635 -0.401035
v -1.899159 -1.055635 -0.786658
v -1.899159 3.055635 -0.786658
v -1.709198 -1.055635 -1.142049
v -1.709198 3.055635 -1.142049
v -1.453553 -1.055635 -1.453553
v -1.453553 3.055635 -1.453553
v -1.142050 -1.055635 -1.709198
v -1.142050 3.055635 -1.709198
v -0.786657 -1.055635 -1.899159
v -0.786657 3.055635 -1.899159
v -0.401034 -1.055635 -2.016136
v -0.401034 3.055635 -2.016136
v 0.000000 21.000002 -1.000000
v 0.195090 21.000002 -0.980785
v 0.382684 21.000002 -0.923880
v 0.555570 21.000002 -0.831470
v 0.707107 21.000002 -0.707107
v 0.831470 21.000002 -0.555570
v 0.923880 21.000002 -0.382683
v 0.980785 21.000002 -0.195090
v 1.000000 21.000002 0.000000
v 0.980785 21.000002 0.195090
v 0.923880 21.000002 0.382683
v 0.831470 21.000002 0.555570
v 0.707107 21.000002 0.707107
v 0.555570 21.000002 0.831470
v 0.382684 21.000002 0.923880
v 0.195090 21.000002 0.980785
v 0.000000 21.000002 1.000000
v -0.195090 21.000002 0.980785
v -0.382683 21.000002 0.923880
v -0.555570 21.000002 0.831470
v -0.707107 21.000002 0.707107
v -0.831469 21.000002 0.555570
v -0.923879 21.000002 0.382684
v -0.980785 21.000002 0.195090
v -1.000000 21.000002 -0.000000
v -0.980785 21.000002 -0.195090
v -0.923879 21.000002 -0.382684
v -0.831470 21.000002 -0.555570
v -0.707107 21.000002 -0.707107
v -0.555570 21.000002 -0.831470
v -0.382683 21.000002 -0.923880
v -0.195090 21.000002 -0.980785
v 1.200000 22.000000 3.000000
v -1.200000 22.000000 3.000000
v -1.200000 22.000000 -3.000000
v 1.200000 22.000000 -3.000000
v -0.000000 21.453634 -1.000000
v 0.195090 21.453634 -0.980785
v 0.382683 21.453634 -0.923880
v 0.555570 21.453634 -0.831470
v 0.707107 21.453634 -0.707107
v 0.831469 21.453634 -0.555570
v 0.923879 21.453634 -0.382683
v 0.980785 21.453634 -0.195090
v 1.000000 21.453634 0.000000
v 0.980785 21.453634 0.195090
v 0.923879 21.453634 0.382683
v 0.831470 21.453634 0.555570
v 0.707107 21.453634 0.707107
v 0.555570 21.453634 0.831470
v 0.382683 21.453634 0.923880
v 0.195090 21.453634 0.980785
v -0.000000 21.453634 1.000000
v -0.195090 21.453634 0.980785
v -0.382684 21.453634 0.923880
v -0.555570 21.453634 0.831470
v -0.707107 21.453634 0.707107
v -0.831470 21.453634 0.555570
v -0.923880 21.453634 0.382684
v -0.980785 21.453634 0.195090
v -1.000000 21.453634 -0.000000
v -0.980785 21.453634 -0.195090
v -0.923880 21.453634 -0.382684
v -0.831470 21.453634 -0.555570
v -0.707107 21.453634 -0.707107
v -0.555570 21.453634 -0.831470
v -0.382684 21.453634 -0.923880
v -0.195090 21.453634 -0.980785
v 1.200000 24.049484 3.000000
v -1.200000 24.049484 3.000000
v -1.200000 24.049484 -3.000000
v 1.200000 24.049484 -3.000000
v 0.000000 23.993734 2.661623
v 0.318506 23.296730 -4.458418
v -0.318506 23.296730 -4.458418
v 0.318506 22.752754 -4.458418
v -0.318506 22.752754 -4.458418
v 0.013264 23.993734 2.662929
v 0.026018 23.993734 2.666798
v 0.037773 23.993734 2.673081
v 0.048075 23.993734 2.681536
v 0.056531 23.993734 2.691839
v 0.062813 23.993734 2.703594
v 0.066682 23.993734 2.716348
v 0.067989 23.993734 2.729612
v 0.066682 23.993734 2.742876
v 0.062813 23.993734 2.755630
v 0.056531 23.993734 2.767384
v 0.048075 23.993734 2.777687
v 0.037773 23.993734 2.786142
v 0.026018 23.993734 2.792425
v 0.013264 23.993734 2.796294
v 0.000000 23.993734 2.797601
v -0.013264 23.993734 2.796294
v -0.026018 23.993734 2.792425
v -0.037772 23.993734 2.786142
v -0.048075 23.993734 2.777687
v -0.056531 23.993734 2.767384
v -0.062813 23.993734 2.755630
v -0.066682 23.993734 2.742876
v -0.067989 23.993734 2.729612
v -0.066682 23.993734 2.716348
v -0.062813 23.993734 2.703593
v -0.056531 23.993734 2.691839
v -0.048075 23.993734 2.681536
v -0.037772 23.993734 2.673081
v -0.026018 23.993734 2.666798
v -0.013264 23.993734 2.662929
v 0.000000 24.801594 2.729611
vt 1.000000 0.500000
vt 1.000000 1.000000
vt 0.968750 1.000000
vt 0.968750 0.500000
vt 0.937500 1.000000
vt 0.937500 0.500000
vt 0.906250 1.000000
vt 0.906250 0.500000
vt 0.875000 1.000000
vt 0.875000 0.500000
vt 0.843750 1.000000
vt 0.843750 0.500000
vt 0.812500 1.000000
vt 0.812500 0.500000
vt 0.781250 1.000000
vt 0.781250 0.500000
vt 0.750000 1.000000
vt 0.750000 0.500000
vt 0.718750 1.000000
vt 0.718750 0.500000
vt 0.687500 1.000000
vt 0.687500 0.500000
vt 0.656250 1.000000
vt 0.656250 0.500000
vt 0.625000 1.000000
vt 0.625000 0.500000
vt 0.593750 1.000000
vt 0.593750 0.500000
vt 0.562500 1.000000
vt 0.562500 0.500000
vt 0.531250 1.000000
vt 0.531250 0.500000
vt 0.500000 1.000000
vt 0.500000 0.500000
vt 0.468750 1.000000
vt 0.468750 0.500000
vt 0.437500 1.000000
vt 0.437500 0.500000
vt 0.406250 1.000000
vt 0.406250 0.500000
vt 0.375000 1.000000
vt 0.375000 0.500000
vt 0.343750 1.000000
vt 0.343750 0.500000
vt 0.312500 1.000000
vt 0.312500 0.500000
vt 0.281250 1.000000
vt 0.281250 0.500000
vt 0.250000 1.000000
vt 0.250000 0.500000
vt 0.218750 1.000000
vt 0.218750 0.500000
vt 0.187500 1.000000
vt 0.187500 0.500000
vt 0.156250 1.000000
vt 0.156250 0.500000
vt 0.125000 1.000000
vt 0.125000 0.500000
vt 0.093750 1.000000
vt 0.093750 0.500000
vt 0.062500 1.000000
vt 0.062500 0.500000
vt 0.875000 1.000000
vt 0.843750 1.000000
vt 0.031250 1.000000
vt 0.031250 0.500000
vt 0.000000 1.000000
vt 0.000000 0.500000
vt 0.750000 0.490000
vt 0.796822 0.485388
vt 0.841844 0.471731
vt 0.883337 0.449553
vt 0.919706 0.419706
vt 0.949553 0.383337
vt 0.971731 0.341844
vt 0.985388 0.296822
vt 0.990000 0.250000
vt 0.985388 0.203178
vt 0.971731 0.158156
vt 0.949553 0.116663
vt 0.919706 0.080294
vt 0.883337 0.050447
vt 0.841844 0.028269
vt 0.796822 0.014612
vt 0.750000 0.010000
vt 0.703178 0.014612
vt 0.658156 0.028269
vt 0.616663 0.050447
vt 0.580294 0.080294
vt 0.550447 0.116663
vt 0.528269 0.158156
vt 0.514612 0.203178
vt 0.510000 0.250000
vt 0.514612 0.296822
vt 0.528269 0.341844
vt 0.550447 0.383337
vt 0.580294 0.419706
vt 0.616663 0.449553
vt 0.658156 0.471731
vt 0.703178 0.485388
vt 0.781250 1.000000
vt 0.812500 1.000000
vt 0.812500 1.000000
vt 0.781250 1.000000
vt 0.593750 1.000000
vt 0.562500 1.000000
vt 1.000000 1.000000
vt 0.968750 1.000000
vt 0.312500 1.000000
vt 0.281250 1.000000
vt 0.031250 1.000000
vt 0.000000 1.000000
vt 0.718750 1.000000
vt 0.687500 1.000000
vt 0.437500 1.000000
vt 0.406250 1.000000
vt 0.156250 1.000000
vt 0.125000 1.000000
vt 0.531250 1.000000
vt 0.250000 1.000000
vt 0.937500 1.000000
vt 0.656250 1.000000
vt 0.375000 1.000000
vt 0.093750 1.000000
vt 0.500000 1.000000
vt 0.218750 1.000000
vt 0.906250 1.000000
vt 0.625000 1.000000
vt 0.343750 1.000000
vt 0.062500 1.000000
vt 0.750000 1.000000
vt 0.468750 1.000000
vt 0.187500 1.000000
vt 0.000000 0.000000
vt 0.000000 0.000000
vt 0.000000 0.000000
vt 0.000000 0.000000
vt 0.000000 0.000000
vt 0.000000 0.000000
vt 0.000000 0.000000
vt 0.000000 0.000000
vt 0.296822 0.485388
vt 0.250000 0.490000
vt 0.203178 0.485388
vt 0.158156 0.471731
vt 0.116663 0.449553
vt 0.080294 0.419706
vt 0.050447 0.383337
vt 0.028269 0.341844
vt 0.014612 0.296822
vt 0.010000 0.250000
vt 0.014612 0.203178
vt 0.028269 0.158156
vt 0.050447 0.116663
vt 0.080294 0.080294
vt 0.116663 0.050447
vt 0.158156 0.028269
vt 0.203178 0.014612
vt 0.250000 0.010000
vt 0.296822 0.014612
vt 0.341844 0.028269
vt 0.383337 0.050447
vt 0.419706 0.080294
vt 0.449553 0.116663
vt 0.471731 0.158156
vt 0.485388 0.203178
vt 0.490000 0.250000
vt 0.485388 0.296822
vt 0.471731 0.341844
vt 0.449553 0.383337
vt 0.419706 0.419706
vt 0.383337 0.449553
vt 0.341844 0.471731
vt 0.375000 1.000000
vt 0.343750 1.000000
vt 0.000000 0.000000
vt 0.000000 0.000000
vt 0.750000 1.000000
vt 0.312500 1.000000
vt 0.718750 1.000000
vt 0.281250 1.000000
vt 0.687500 1.000000
vt 0.250000 1.000000
vt 0.656250 1.000000
vt 0.218750 1.000000
vt 0.625000 1.000000
vt 0.187500 1.000000
vt 0.593750 1.000000
vt 0.156250 1.000000
vt 0.562500 1.000000
vt 1.000000 1.000000
vt 0.968750 1.000000
vt 0.125000 1.000000
vt 0.531250 1.000000
vt 0.937500 1.000000
vt 0.093750 1.000000
vt 0.500000 1.000000
vt 0.000000 0.000000
vt 0.906250 1.000000
vt 0.062500 1.000000
vt 0.468750 1.000000
vt 0.000000 0.000000
vt 0.875000 1.000000
vt 0.031250 1.000000
vt 0.437500 1.000000
vt 0.843750 1.000000
vt 0.000000 1.000000
vt 0.406250 1.000000
vt 0.000000 0.000000
vt 0.000000 0.000000
vt 0.000000 0.000000
vt 0.000000 0.000000
vt 0.250000 0.490000
vt 0.250000 0.250000
vt 0.296822 0.485388
vt 0.000000 0.000000
vt 0.000000 0.000000
vt 0.000000 0.000000
vt 0.000000 0.000000
vt 0.341844 0.471731
vt 0.383337 0.449553
vt 0.419706 0.419706
vt 0.449553 0.383337
vt 0.471731 0.341844
vt 0.485388 0.296822
vt 0.490000 0.250000
vt 0.485388 0.203178
vt 0.471731 0.158156
vt 0.449553 0.116663
vt 0.419706 0.080294
vt 0.383337 0.050447
vt 0.341844 0.028269
vt 0.296822 0.014612
vt 0.250000 0.010000
vt 0.203178 0.014612
vt 0.158156 0.028269
vt 0.116663 0.050447
vt 0.080294 0.080294
vt 0.050447 0.116663
vt 0.028269 0.158156
vt 0.014612 0.203178
vt 0.010000 0.250000
vt 0.014612 0.296822
vt 0.028269 0.341844
vt 0.050447 0.383337
vt 0.080294 0.419706
vt 0.116663 0.449553
vt 0.158156 0.471731
vt 0.796822 0.485388
vt 0.841844 0.471731
vt 0.883337 0.449553
vt 0.919706 0.419706
vt 0.949553 0.383337
vt 0.971731 0.341844
vt 0.985388 0.296822
vt 0.990000 0.250000
vt 0.985388 0.203178
vt 0.971731 0.158156
vt 0.949553 0.116663
vt 0.919706 0.080294
vt 0.883337 0.050447
vt 0.841844 0.028269
vt 0.796822 0.014612
vt 0.750000 0.010000
vt 0.703178 0.014612
vt 0.658156 0.028269
vt 0.616663 0.050447
vt 0.580294 0.080294
vt 0.550447 0.116663
vt 0.528269 0.158156
vt 0.514612 0.203178
vt 0.510000 0.250000
vt 0.514612 0.296822
vt 0.528269 0.341844
vt 0.550447 0.383337
vt 0.580294 0.419706
vt 0.616663 0.449553
vt 0.658156 0.471731
vt 0.703178 0.485388
vt 0.750000 0.490000
vt 0.203178 0.485388
vn 0.0980 0.0000 -0.9952
vn 0.2903 0.0000 -0.9569
vn 0.4714 0.0000 -0.8819
vn 0.6344 0.0000 -0.7730
vn 0.7730 0.0000 -0.6344
vn 0.8819 0.0000 -0.4714
vn 0.9569 0.0000 -0.2903
vn 0.9952 0.0000 -0.0980
vn 0.9952 0.0000 0.0980
vn 0.9569 0.0000 0.2903
vn 0.8819 0.0000 0.4714
vn 0.7730 0.0000 0.6344
vn 0.6344 0.0000 0.7730
vn 0.4714 0.0000 0.8819
vn 0.2903 0.0000 0.9569
vn 0.0980 0.0000 0.9952
vn -0.0980 0.0000 0.9952
vn -0.2903 0.0000 0.9569
vn -0.4714 0.0000 0.8819
vn -0.6344 0.0000 0.7730
vn -0.7730 0.0000 0.6344
vn -0.8819 0.0000 0.4714
vn -0.9569 0.0000 0.2903
vn -0.9952 0.0000 0.0980
vn -0.9952 0.0000 -0.0980
vn -0.9569 0.0000 -0.2903
vn -0.8819 0.0000 -0.4714
vn -0.7730 0.0000 -0.6344
vn -0.6344 0.0000 -0.7730
vn -0.4714 0.0000 -0.8819
vn 0.7717 0.0584 -0.6333
vn -0.2903 0.0000 -0.9569
vn -0.0980 0.0000 -0.9952
vn 0.0000 -1.0000 -0.0000
vn 0.4706 0.0584 0.8804
vn 0.0978 0.0584 -0.9935
vn -0.9553 0.0584 0.2898
vn -0.0978 0.0584 -0.9935
vn 0.9553 0.0584 0.2898
vn -0.4706 0.0584 0.8804
vn -0.7717 0.0584 -0.6333
vn 0.8804 0.0584 -0.4706
vn 0.2898 0.0584 0.9553
vn -0.9935 0.0584 0.0978
vn 0.2898 0.0584 -0.9553
vn 0.8804 0.0584 0.4706
vn -0.6333 0.0584 0.7717
vn -0.6333 0.0584 -0.7717
vn 0.9553 0.0584 -0.2898
vn 0.0978 0.0584 0.9935
vn -0.9935 0.0584 -0.0978
vn 0.4706 0.0584 -0.8804
vn 0.7717 0.0584 0.6333
vn -0.7717 0.0584 0.6333
vn -0.4706 0.0584 -0.8804
vn 0.9935 0.0584 -0.0978
vn -0.0978 0.0584 0.9935
vn -0.9553 0.0584 -0.2898
vn 0.6333 0.0584 -0.7717
vn 0.6333 0.0584 0.7717
vn -0.8804 0.0584 0.4706
vn -0.2898 0.0584 -0.9553
vn 0.9935 0.0584 0.0978
vn -0.2898 0.0584 0.9553
vn -0.8804 0.0584 -0.4706
vn 0.0000 -0.9081 -0.4188
vn 0.8406 -0.5417 0.0000
vn 0.0000 -0.9081 0.4188
vn -0.8406 -0.5417 0.0000
vn 0.0000 1.0000 0.0000
vn 1.0000 0.0000 0.0000
vn 0.0000 0.0000 1.0000
vn -1.0000 -0.0000 -0.0000
vn 0.0000 0.0000 -1.0000
vn 0.0977 0.0835 -0.9917
vn 0.0000 -0.8886 -0.4587
vn 0.0000 0.8886 -0.4587
vn 0.8558 0.0000 -0.5173
vn -0.8558 0.0000 -0.5173
vn 0.2893 0.0835 -0.9536
vn 0.4698 0.0835 -0.8788
vn 0.6322 0.0835 -0.7703
vn 0.7703 0.0835 -0.6322
vn 0.8788 0.0835 -0.4697
vn 0.9536 0.0835 -0.2893
vn 0.9917 0.0835 -0.0977
vn 0.9917 0.0835 0.0977
vn 0.9536 0.0835 0.2893
vn 0.8788 0.0835 0.4698
vn 0.7703 0.0835 0.6322
vn 0.6322 0.0835 0.7703
vn 0.4697 0.0835 0.8789
vn 0.2893 0.0835 0.9536
vn 0.0977 0.0835 0.9917
vn -0.0977 0.0835 0.9917
vn -0.2893 0.0835 0.9536
vn -0.4697 0.0835 0.8789
vn -0.6322 0.0835 0.7703
vn -0.7703 0.0835 0.6322
vn -0.8788 0.0835 0.4698
vn -0.9536 0.0835 0.2893
vn -0.9917 0.0835 0.0977
vn -0.9917 0.0835 -0.0977
vn -0.9536 0.0835 -0.2893
vn -0.8788 0.0835 -0.4698
vn -0.7703 0.0835 -0.6322
vn -0.6322 0.0835 -0.7703
vn -0.4698 0.0835 -0.8788
vn -0.2893 0.0835 -0.9536
vn -0.0977 0.0835 -0.9917
usemtl None
s off
f 1/1/1 2/2/1 4/3/1 3/4/1
f 3/4/2 4/3/2 6/5/2 5/6/2
f 5/6/3 6/5/3 8/7/3 7/8/3
f 7/8/4 8/7/4 10/9/4 9/10/4
f 9/10/5 10/9/5 12/11/5 11/12/5
f 11/12/6 12/11/6 14/13/6 13/14/6
f 13/14/7 14/13/7 16/15/7 15/16/7
f 15/16/8 16/15/8 18/17/8 17/18/8
f 17/18/9 18/17/9 20/19/9 19/20/9
f 19/20/10 20/19/10 22/21/10 21/22/10
f 21/22/11 22/21/11 24/23/11 23/24/11
f 23/24/12 24/23/12 26/25/12 25/26/12
f 25/26/13 26/25/13 28/27/13 27/28/13
f 27/28/14 28/27/14 30/29/14 29/30/14
f 29/30/15 30/29/15 32/31/15 31/32/15
f 31/32/16 32/31/16 34/33/16 33/34/16
f 33/34/17 34/33/17 36/35/17 35/36/17
f 35/36/18 36/35/18 38/37/18 37/38/18
f 37/38/19 38/37/19 40/39/19 39/40/19
f 39/40/20 40/39/20 42/41/20 41/42/20
f 41/42/21 42/41/21 44/43/21 43/44/21
f 43/44/22 44/43/22 46/45/22 45/46/22
f 45/46/23 46/45/23 48/47/23 47/48/23
f 47/48/24 48/47/24 50/49/24 49/50/24
f 49/50/25 50/49/25 52/51/25 51/52/25
f 51/52/26 52/51/26 54/53/26 53/54/26
f 53/54/27 54/53/27 56/55/27 55/56/27
f 55/56/28 56/55/28 58/57/28 57/58/28
f 57/58/29 58/57/29 60/59/29 59/60/29
f 59/60/30 60/59/30 62/61/30 61/62/30
f 12/11/31 10/9/31 69/63/31 70/64/31
f 61/62/32 62/61/32 64/65/32 63/66/32
f 63/66/33 64/65/33 2/67/33 1/68/33
f 1/69/34 3/70/34 5/71/34 7/72/34 9/73/34 11/74/34 13/75/34 15/76/34 17/77/34 19/78/34 21/79/34 23/80/34 25/81/34 27/82/34 29/83/34 31/84/34 33/85/34 35/86/34 37/87/34 39/88/34 41/89/34 43/90/34 45/91/34 47/92/34 49/93/34 51/94/34 53/95/34 55/96/34 57/97/34 59/98/34 61/99/34 63/100/34
f 72/101/7 71/102/7 107/103/7 108/104/7
f 30/29/35 28/27/35 78/105/35 79/106/35
f 4/3/36 2/2/36 65/107/36 66/108/36
f 48/47/37 46/45/37 87/109/37 88/110/37
f 2/67/38 64/65/38 96/111/38 65/112/38
f 22/21/39 20/19/39 74/113/39 75/114/39
f 40/39/40 38/37/40 83/115/40 84/116/40
f 58/57/41 56/55/41 92/117/41 93/118/41
f 14/13/42 12/11/42 70/64/42 71/102/42
f 32/31/43 30/29/43 79/106/43 80/119/43
f 50/49/44 48/47/44 88/110/44 89/120/44
f 6/5/45 4/3/45 66/108/45 67/121/45
f 24/23/46 22/21/46 75/114/46 76/122/46
f 42/41/47 40/39/47 84/116/47 85/123/47
f 60/59/48 58/57/48 93/118/48 94/124/48
f 16/15/49 14/13/49 71/102/49 72/101/49
f 34/33/50 32/31/50 80/119/50 81/125/50
f 52/51/51 50/49/51 89/120/51 90/126/51
f 8/7/52 6/5/52 67/121/52 68/127/52
f 26/25/53 24/23/53 76/122/53 77/128/53
f 44/43/54 42/41/54 85/123/54 86/129/54
f 62/61/55 60/59/55 94/124/55 95/130/55
f 18/17/56 16/15/56 72/101/56 73/131/56
f 36/35/57 34/33/57 81/125/57 82/132/57
f 54/53/58 52/51/58 90/126/58 91/133/58
f 10/9/59 8/7/59 68/127/59 69/63/59
f 28/27/60 26/25/60 77/128/60 78/105/60
f 46/45/61 44/43/61 86/129/61 87/109/61
f 64/65/62 62/61/62 95/130/62 96/111/62
f 20/19/63 18/17/63 73/131/63 74/113/63
f 38/37/64 36/35/64 82/132/64 83/115/64
f 56/55/65 54/53/65 91/133/65 92/117/65
f 99/134/66 100/135/66 68/136/66 94/137/66
f 97/138/67 78/139/67 68/136/67 100/135/67
f 97/138/68 98/140/68 84/141/68 78/139/68
f 98/140/69 99/134/69 94/137/69 84/141/69
f 102/142/70 101/143/70 132/144/70 131/145/70 130/146/70 129/147/70 128/148/70 127/149/70 126/150/70 125/151/70 124/152/70 123/153/70 122/154/70 121/155/70 120/156/70 119/157/70 118/158/70 117/159/70 116/160/70 115/161/70 114/162/70 113/163/70 112/164/70 111/165/70 110/166/70 109/167/70 108/168/70 107/169/70 106/170/70 105/171/70 104/172/70 103/173/70
f 86/129/21 85/123/21 121/174/21 122/175/21
f 84/141/71 94/137/71 130/176/71 120/177/71
f 73/131/8 72/101/8 108/104/8 109/178/8
f 87/109/22 86/129/22 122/175/22 123/179/22
f 74/113/9 73/131/9 109/178/9 110/180/9
f 88/110/23 87/109/23 123/179/23 124/181/23
f 75/114/10 74/113/10 110/180/10 111/182/10
f 89/120/24 88/110/24 124/181/24 125/183/24
f 76/122/11 75/114/11 111/182/11 112/184/11
f 90/126/25 89/120/25 125/183/25 126/185/25
f 77/128/12 76/122/12 112/184/12 113/186/12
f 91/133/26 90/126/26 126/185/26 127/187/26
f 78/105/13 77/128/13 113/186/13 114/188/13
f 92/117/27 91/133/27 127/187/27 128/189/27
f 79/106/14 78/105/14 114/188/14 115/190/14
f 66/108/1 65/107/1 101/191/1 102/192/1
f 93/118/28 92/117/28 128/189/28 129/193/28
f 80/119/15 79/106/15 115/190/15 116/194/15
f 67/121/2 66/108/2 102/192/2 103/195/2
f 94/124/29 93/118/29 129/193/29 130/196/29
f 81/125/16 80/119/16 116/194/16 117/197/16
f 94/137/72 68/136/72 104/198/72 130/176/72
f 68/127/3 67/121/3 103/195/3 104/199/3
f 95/130/30 94/124/30 130/196/30 131/200/30
f 82/132/17 81/125/17 117/197/17 118/201/17
f 68/136/73 78/139/73 114/202/73 104/198/73
f 69/63/4 68/127/4 104/199/4 105/203/4
f 96/111/32 95/130/32 131/200/32 132/204/32
f 83/115/18 82/132/18 118/201/18 119/205/18
f 70/64/5 69/63/5 105/203/5 106/206/5
f 65/112/33 96/111/33 132/204/33 101/207/33
f 84/116/19 83/115/19 119/205/19 120/208/19
f 78/139/74 84/141/74 120/177/74 114/202/74
f 71/102/6 70/64/6 106/206/6 107/103/6
f 85/123/20 84/116/20 120/208/20 121/174/20
f 135/209/70 134/210/70 133/211/70 136/212/70
f 99/134/73 98/140/73 134/210/73 135/209/73
f 98/140/72 97/138/72 133/211/72 134/210/72
f 97/138/71 100/135/71 136/212/71 133/211/71
f 137/213/75 173/214/75 142/215/75
f 100/135/76 99/134/76 141/216/76 140/217/76
f 135/209/77 136/212/77 138/218/77 139/219/77
f 136/212/78 100/135/78 140/217/78 138/218/78
f 99/134/79 135/209/79 139/219/79 141/216/79
f 142/215/80 173/214/80 143/220/80
f 143/220/81 173/214/81 144/221/81
f 144/221/82 173/214/82 145/222/82
f 145/222/83 173/214/83 146/223/83
f 146/223/84 173/214/84 147/224/84
f 147/224/85 173/214/85 148/225/85
f 148/225/86 173/214/86 149/226/86
f 149/226/87 173/214/87 150/227/87
f 150/227/88 173/214/88 151/228/88
f 151/228/89 173/214/89 152/229/89
f 152/229/90 173/214/90 153/230/90
f 153/230/91 173/214/91 154/231/91
f 154/231/92 173/214/92 155/232/92
f 155/232/93 173/214/93 156/233/93
f 156/233/94 173/214/94 157/234/94
f 157/234/95 173/214/95 158/235/95
f 158/235/96 173/214/96 159/236/96
f 159/236/97 173/214/97 160/237/97
f 160/237/98 173/214/98 161/238/98
f 161/238/99 173/214/99 162/239/99
f 162/239/100 173/214/100 163/240/100
f 163/240/101 173/214/101 164/241/101
f 164/241/102 173/214/102 165/242/102
f 165/242/103 173/214/103 166/243/103
f 166/243/104 173/214/104 167/244/104
f 167/244/105 173/214/105 168/245/105
f 168/245/106 173/214/106 169/246/106
f 169/246/107 173/214/107 170/247/107
f 170/247/108 173/214/108 171/248/108
f 142/249/34 143/250/34 144/251/34 145/252/34 146/253/34 147/254/34 148/255/34 149/256/34 150/257/34 151/258/34 152/259/34 153/260/34 154/261/34 155/262/34 156/263/34 157/264/34 158/265/34 159/266/34 160/267/34 161/268/34 162/269/34 163/270/34 164/271/34 165/272/34 166/273/34 167/274/34 168/275/34 169/276/34 170/277/34 171/278/34 172/279/34 137/280/34
f 171/248/109 173/214/109 172/281/109
f 172/281/110 173/214/110 137/213/110
